<svg width="72" height="72" viewBox="0 0 72 72" fill="none" xmlns="http://www.w3.org/2000/svg">
<rect width="72" height="72" rx="36" fill="url(#paint0_linear_130_953)" fill-opacity="0.15"/>
<rect x="0.5" y="0.5" width="71" height="71" rx="35.5" stroke="#0098EA" stroke-opacity="0.1"/>
<path d="M30.256 35.8627L32.136 36.4893C33.3787 36.9027 33.9986 37.1107 34.444 37.556C34.8893 38.0013 35.0973 38.6227 35.5107 39.8627L36.1373 41.7427C37.1826 44.8813 37.7053 46.4493 38.6666 46.4493C39.6266 46.4493 40.1507 44.8813 41.196 41.7427L44.98 30.3933C45.716 28.1853 46.084 27.0813 45.5013 26.4987C44.9186 25.916 43.8146 26.284 41.608 27.0187L30.2546 30.8053C27.12 31.8493 25.5493 32.372 25.5493 33.3333C25.5493 34.2933 27.1186 34.8173 30.256 35.8627Z" fill="#0098EA" fill-opacity="0.25"/>
<path d="M30.256 35.8627L32.136 36.4893C33.3787 36.9027 33.9986 37.1107 34.444 37.556C34.8893 38.0013 35.0973 38.6227 35.5107 39.8627L36.1373 41.7427C37.1826 44.8813 37.7053 46.4493 38.6666 46.4493C39.6266 46.4493 40.1507 44.8813 41.196 41.7427L44.98 30.3933C45.716 28.1853 46.084 27.0813 45.5013 26.4987C44.9186 25.916 43.8146 26.284 41.608 27.0187L30.2546 30.8053C27.12 31.8493 25.5493 32.372 25.5493 33.3333C25.5493 34.2933 27.1186 34.8173 30.256 35.8627Z" fill="#0098EA" fill-opacity="0.72"/>
<path d="M32.7013 38.456L29.952 37.54C29.7596 37.4759 29.5551 37.4565 29.3541 37.4833C29.1531 37.5101 28.9608 37.5824 28.792 37.6947L27.3387 38.6627C27.1666 38.7773 27.0316 38.9394 26.95 39.1294C26.8684 39.3193 26.8438 39.5289 26.8791 39.7326C26.9144 39.9363 27.0081 40.1253 27.1489 40.2767C27.2897 40.4281 27.4714 40.5353 27.672 40.5853L30.2787 41.236C30.396 41.2653 30.5031 41.3259 30.5886 41.4114C30.6741 41.4969 30.7347 41.604 30.764 41.7213L31.4146 44.328C31.4647 44.5286 31.5719 44.7103 31.7233 44.8511C31.8747 44.9918 32.0637 45.0856 32.2674 45.1209C32.4711 45.1562 32.6807 45.1316 32.8706 45.05C33.0606 44.9684 33.2227 44.8334 33.3373 44.6613L34.3053 43.208C34.4176 43.0391 34.4899 42.8469 34.5167 42.6459C34.5435 42.4449 34.5241 42.2404 34.46 42.048L33.544 39.2987C33.4785 39.1025 33.3683 38.9242 33.222 38.778C33.0758 38.6317 32.8975 38.5215 32.7013 38.456Z" fill="#0098EA"/>
<defs>
<linearGradient id="paint0_linear_130_953" x1="36" y1="0" x2="36" y2="72" gradientUnits="userSpaceOnUse">
<stop stop-color="white"/>
<stop offset="1" stop-color="#0098EA"/>
</linearGradient>
</defs>
</svg>
