<svg width="72" height="72" viewBox="0 0 72 72" fill="none" xmlns="http://www.w3.org/2000/svg">
<rect width="72" height="72" rx="36" fill="url(#paint0_linear_130_958)" fill-opacity="0.15"/>
<rect x="0.5" y="0.5" width="71" height="71" rx="35.5" stroke="#0098EA" stroke-opacity="0.1"/>
<path d="M42.5973 33.2667L39.9973 30.6667V39.4493C39.9973 40.636 38.5613 41.232 37.7213 40.392L35.9947 38.6667C35.328 38 33.7267 37.6 32.6587 38.6667C31.592 39.7333 31.992 41.3333 32.6587 42L37.4627 47.8667C37.838 48.3253 38.3107 48.6948 38.8463 48.9485C39.382 49.2021 39.9673 49.3336 40.56 49.3333H44C44.3536 49.3333 44.6928 49.1928 44.9428 48.9428C45.1929 48.6928 45.3333 48.3536 45.3333 48V39.8667C45.3331 38.6408 45.0913 37.4269 44.6219 36.2945C44.1524 35.1621 43.4645 34.1332 42.5973 33.2667Z" fill="#0098EA" stroke="#0098EA" stroke-width="2.66667" stroke-linecap="round" stroke-linejoin="round"/>
<path d="M34.6667 22.6667H37.3334C38.0406 22.6667 38.7189 22.9476 39.219 23.4477C39.7191 23.9478 40 24.6261 40 25.3333V28M34.6667 22.6667C34.6667 24.444 35.7334 28 40 28M34.6667 22.6667H32M40 28V36M32 22.6667H29.3334C28.6261 22.6667 27.9478 22.9476 27.4477 23.4477C26.9476 23.9478 26.6667 24.6261 26.6667 25.3333V28M32 22.6667C32 24.444 30.9334 28 26.6667 28M26.6667 36V38.6667C26.6667 39.3739 26.9476 40.0522 27.4477 40.5523C27.9478 41.0524 28.6261 41.3333 29.3334 41.3333H32C32 39.556 30.9334 36 26.6667 36ZM26.6667 36V28" stroke="#0098EA" stroke-width="2.66667" stroke-linecap="round" stroke-linejoin="round"/>
<path d="M32 32C32 32.7364 32.597 33.3333 33.3334 33.3333C34.0697 33.3333 34.6667 32.7364 34.6667 32C34.6667 31.2636 34.0697 30.6667 33.3334 30.6667C32.597 30.6667 32 31.2636 32 32Z" stroke="#0098EA" stroke-width="2.66667" stroke-linecap="round" stroke-linejoin="round"/>
<defs>
<linearGradient id="paint0_linear_130_958" x1="36" y1="0" x2="36" y2="72" gradientUnits="userSpaceOnUse">
<stop stop-color="white"/>
<stop offset="1" stop-color="#0098EA"/>
</linearGradient>
</defs>
</svg>
