<svg width="72" height="72" viewBox="0 0 72 72" fill="none" xmlns="http://www.w3.org/2000/svg">
<rect width="72" height="72" rx="36" fill="url(#paint0_linear_130_950)" fill-opacity="0.15"/>
<rect x="0.5" y="0.5" width="71" height="71" rx="35.5" stroke="#0098EA" stroke-opacity="0.1"/>
<path d="M36.525 25.9381C34.3 25.9344 31.5125 26.6375 28.7625 28.0688C26.0169 29.5 23.8406 31.375 22.5631 33.2063C21.285 35.0312 20.9394 36.7313 21.5681 37.9438C22.1975 39.15 23.7887 39.8438 26.0194 39.8438C28.25 39.85 31.0375 39.1438 33.7812 37.7188C36.5312 36.2875 38.7062 34.4062 39.9812 32.5813C41.2625 30.7563 41.6 29.0563 40.975 27.8438C40.3437 26.6375 38.7562 25.9381 36.525 25.9381ZM42.2687 30.3313C42.05 31.2875 41.575 32.2688 40.9062 33.225C39.4937 35.2438 37.1875 37.2125 34.3 38.7125C31.4125 40.2188 28.4812 40.975 26.0187 40.975C24.8562 40.975 23.7787 40.8 22.8706 40.4312L23.5325 41.7062C24.1625 42.9187 25.7494 43.6125 27.9812 43.6125C30.2125 43.6125 33 42.9125 35.7437 41.4813C38.4937 40.0563 40.6687 38.175 41.9437 36.3438C43.2187 34.5188 43.5687 32.8188 42.9375 31.6125L42.2687 30.3313ZM44.0687 31.3813C44.7687 33.05 44.2062 35.0812 42.8687 36.9875C41.6875 38.6812 39.8812 40.325 37.6437 41.7C38.3375 41.775 39.0625 41.8125 39.8 41.8125C42.8937 41.8125 45.6937 41.15 47.6687 40.1187C49.65 39.0875 50.7375 37.7375 50.7375 36.375C50.7375 35.0125 49.65 33.6625 47.6687 32.6313C46.6625 32.1063 45.4375 31.675 44.0687 31.3813ZM50.7375 39.1812C50.1 39.925 49.225 40.5812 48.1937 41.1187C46.0062 42.2563 43.0562 42.9375 39.8 42.9375C38.475 42.9375 37.2 42.825 36.0062 42.6125C34.5562 43.3438 33.1 43.8875 31.7 44.2437C31.775 44.2875 31.85 44.325 31.9312 44.3687C33.9062 45.4 36.7062 46.0625 39.8 46.0625C42.8937 46.0625 45.6937 45.4 47.6687 44.3687C49.65 43.3375 50.7375 41.9875 50.7375 40.625V39.1812Z" fill="#0098EA"/>
<defs>
<linearGradient id="paint0_linear_130_950" x1="36" y1="0" x2="36" y2="72" gradientUnits="userSpaceOnUse">
<stop stop-color="white"/>
<stop offset="1" stop-color="#0098EA"/>
</linearGradient>
</defs>
</svg>
