<svg width="72" height="72" viewBox="0 0 72 72" fill="none" xmlns="http://www.w3.org/2000/svg">
<rect width="72" height="72" rx="36" fill="url(#paint0_linear_130_977)" fill-opacity="0.15"/>
<rect x="0.5" y="0.5" width="71" height="71" rx="35.5" stroke="#0098EA" stroke-opacity="0.1"/>
<path fill-rule="evenodd" clip-rule="evenodd" d="M28 28C28 27.0734 28.2682 26.1666 28.7723 25.3891C29.2763 24.6116 29.9946 23.9966 30.8405 23.6183C31.6863 23.24 32.6236 23.1147 33.5392 23.2573C34.4547 23.4 35.3094 23.8047 36 24.4224C36.7942 23.7105 37.8029 23.2835 38.8668 23.2087C39.9307 23.1338 40.9893 23.4155 41.8753 24.0091C42.7614 24.6027 43.4245 25.4746 43.76 26.487C44.0955 27.4994 44.0842 28.5947 43.728 29.6H45.6C46.4487 29.6 47.2626 29.9371 47.8628 30.5372C48.4629 31.1374 48.8 31.9513 48.8 32.8C48.8 33.6487 48.4629 34.4626 47.8628 35.0627C47.2626 35.6628 46.4487 36 45.6 36H37.6V34.4C37.6 33.9756 37.4314 33.5687 37.1314 33.2686C36.8313 32.9686 36.4244 32.8 36 32.8C35.5757 32.8 35.1687 32.9686 34.8686 33.2686C34.5686 33.5687 34.4 33.9756 34.4 34.4V36H26.4C25.5513 36 24.7374 35.6628 24.1373 35.0627C23.5372 34.4626 23.2 33.6487 23.2 32.8C23.2 31.9513 23.5372 31.1374 24.1373 30.5372C24.7374 29.9371 25.5513 29.6 26.4 29.6H28.272C28.096 29.0992 28 28.56 28 28ZM34.4 29.6V28C34.4 27.6835 34.3062 27.3742 34.1304 27.1111C33.9546 26.848 33.7047 26.6429 33.4123 26.5218C33.1199 26.4007 32.7982 26.369 32.4879 26.4307C32.1775 26.4925 31.8924 26.6448 31.6686 26.8686C31.4449 27.0924 31.2925 27.3775 31.2308 27.6878C31.169 27.9982 31.2007 28.3199 31.3218 28.6123C31.4429 28.9046 31.648 29.1545 31.9111 29.3303C32.1742 29.5061 32.4836 29.6 32.8 29.6H34.4ZM39.2 29.6C39.5165 29.6 39.8258 29.5061 40.0889 29.3303C40.352 29.1545 40.5571 28.9046 40.6782 28.6123C40.7993 28.3199 40.831 27.9982 40.7693 27.6878C40.7075 27.3775 40.5551 27.0924 40.3314 26.8686C40.1076 26.6448 39.8225 26.4925 39.5122 26.4307C39.2018 26.369 38.8801 26.4007 38.5877 26.5218C38.2954 26.6429 38.0455 26.848 37.8697 27.1111C37.6939 27.3742 37.6 27.6835 37.6 28V29.6H39.2Z" fill="#0098EA"/>
<path d="M34.4 37.6H24.8V45.6C24.8 46.4487 25.1371 47.2626 25.7372 47.8627C26.3374 48.4628 27.1513 48.8 28 48.8H34.4V37.6ZM37.6 48.8H44C44.8487 48.8 45.6626 48.4628 46.2627 47.8627C46.8628 47.2626 47.2 46.4487 47.2 45.6V37.6H37.6V48.8Z" fill="#0098EA"/>
<defs>
<linearGradient id="paint0_linear_130_977" x1="36" y1="0" x2="36" y2="72" gradientUnits="userSpaceOnUse">
<stop stop-color="white"/>
<stop offset="1" stop-color="#0098EA"/>
</linearGradient>
</defs>
</svg>
